 <svg
        width="144"
        height="40"
        viewBox="0 0 144 40"
        fill="none"
        xmlns="http://www.w3.org/2000/svg"
      >
        <path
          d="M40.3931 40.0005C27.0597 40.0005 13.7264 40.0005 0.393009 40.0005C0.393009 39.8912 0.403938 39.7819 0.403938 39.6726C0.403938 30.2956 0.414867 20.9185 0.38208 11.5415C0.38208 10.8639 0.556944 10.5032 1.15804 10.1753C2.90667 9.23546 4.64438 8.26278 6.56788 7.72726C7.05968 7.59611 7.57334 7.51961 8.07608 7.49775C8.66624 7.46496 8.88482 7.65076 8.88482 8.25185C8.88482 8.85294 8.80832 9.47589 8.66624 10.0551C7.81378 13.771 7.12526 17.5087 7.03782 21.3338C6.99411 23.2573 7.07061 25.1808 7.58427 27.0497C7.94493 28.3611 8.46952 29.5961 9.50777 30.536C11.2892 32.1535 13.9231 32.1753 15.8575 30.6344C17.005 29.7163 17.8575 28.5469 18.5242 27.2682C19.4859 25.4103 20.3821 23.5087 21.3001 21.6289C21.9996 20.2081 22.699 18.7983 23.7373 17.5852C24.2619 16.9732 24.8739 16.4595 25.6827 16.2409C26.6444 15.9786 27.1362 16.1972 27.5078 17.1152C27.6936 17.5961 27.8466 18.1098 27.9122 18.6234C28.1198 20.3065 28.2619 22.0005 28.4586 23.6835C28.546 24.4376 28.6772 25.1808 29.0597 25.8475C29.3876 26.4267 29.8794 26.7218 30.5679 26.6781C31.4094 26.6234 32.087 26.2628 32.557 25.5742C32.8193 25.1917 33.0379 24.7764 33.1909 24.3393C33.6171 23.0934 33.9777 21.8147 34.404 20.5688C35.1253 18.4704 36.0105 16.4486 37.3001 14.6344C38.0324 13.607 38.8849 12.689 39.9887 12.0333C40.1089 11.9568 40.251 11.8912 40.4258 11.8038C40.4258 12.0005 40.4258 12.1207 40.4258 12.2409C40.4258 21.3557 40.4258 30.4595 40.4258 39.5742C40.4149 39.7163 40.3931 39.8584 40.3931 40.0005Z"
          fill="#0284C7"
        />
        <path
          d="M0.414062 7.19126C0.414062 4.77596 0.414062 2.39344 0.414062 0C13.7365 0 27.048 0 40.3922 0C40.4031 0.120219 40.4141 0.240437 40.4141 0.349727C40.4141 3.86885 40.4141 7.39891 40.4031 10.918C40.4031 11.0601 40.3266 11.2678 40.2283 11.3115C38.6982 12.0437 37.5507 13.1913 36.5671 14.5355C35.0917 16.5683 34.1081 18.8415 33.2556 21.1913C32.9277 22.0984 32.6436 23.0164 32.3157 23.9235C32.2064 24.2295 32.0425 24.5355 31.8676 24.8088C31.7255 25.0273 31.5288 25.235 31.3212 25.3771C30.5561 25.8907 30.0097 25.7049 29.8239 24.8197C29.6381 23.9563 29.5507 23.0711 29.4742 22.1858C29.343 20.776 29.2884 19.3443 29.1135 17.9454C29.037 17.3443 28.8294 16.7323 28.5671 16.1749C28.0425 15.0383 27.0807 14.5902 25.8348 14.7432C24.5234 14.9071 23.5179 15.5847 22.6545 16.5246C21.4086 17.8798 20.5671 19.4973 19.7146 21.1148C18.7092 23.0273 17.7037 24.9399 16.6436 26.8306C16.1736 27.6612 15.5507 28.4044 14.7966 28.9946C14.2392 29.4426 13.6163 29.7159 12.8731 29.7268C11.802 29.7486 11.0152 29.2787 10.4687 28.3935C9.83483 27.3661 9.59439 26.2186 9.46325 25.0383C9.17909 22.47 9.38674 19.9016 9.84576 17.3771C10.272 15.0273 10.8403 12.6885 11.3649 10.3607C11.5616 9.45356 11.7146 8.54645 11.5725 7.61749C11.2993 5.78142 9.97691 4.68853 8.04248 4.66667C6.63264 4.65574 5.28838 5.02733 3.99876 5.55192C2.89494 6 1.81297 6.53552 0.720074 7.02733C0.632642 7.0929 0.54521 7.13662 0.414062 7.19126Z"
          fill="#0284C7"
        />
        <path
          d="M52.4316 14.1898C51.5799 14.1197 50.9185 14.0495 50.4676 13.9593V12.837C51.4296 12.9372 52.7823 12.9873 54.5259 12.9873C55.4578 12.9873 56.1893 12.837 56.7004 12.5464C57.2215 12.2558 57.472 11.7147 57.472 10.9431V10.0213C57.472 8.73862 56.8006 8.10732 55.4478 8.10732H53.9948C52.8224 8.10732 51.9406 7.85681 51.3294 7.34576C50.7181 6.83471 50.4175 5.99298 50.4175 4.83059V4.04899C50.4175 2.80643 50.7482 1.90458 51.4095 1.35345C52.0709 0.792295 53.0529 0.511719 54.3556 0.511719C54.9067 0.511719 55.5781 0.551801 56.3597 0.631966C57.1413 0.71213 57.7726 0.802316 58.2636 0.902522V2.00479C56.6002 1.89456 55.3476 1.83444 54.5059 1.83444C53.594 1.83444 52.9226 1.99477 52.4817 2.32545C52.0408 2.65612 51.8204 3.24734 51.8204 4.10911V4.74041C51.8204 5.45187 52.0108 5.96292 52.3815 6.26354C52.7523 6.56415 53.3134 6.71446 54.0449 6.71446H55.6082C56.6804 6.71446 57.492 7.00506 58.0432 7.57623C58.5943 8.1474 58.8749 8.90897 58.8749 9.87094V10.9231C58.8749 12.1857 58.4941 13.0675 57.7225 13.5685C56.9509 14.0696 55.9088 14.3201 54.576 14.3201C54.0049 14.3 53.2934 14.26 52.4316 14.1898Z"
          fill="#0284C7"
        />
        <path
          d="M63.7647 13.8688C63.1534 13.5883 62.6925 13.0772 62.3918 12.3457C62.0912 11.6142 61.9409 10.5821 61.9409 9.23932C61.9409 7.88654 62.0912 6.8444 62.4019 6.1129C62.7125 5.38139 63.1634 4.88036 63.7647 4.60981C64.3659 4.33925 65.1776 4.20898 66.1997 4.20898C67.2118 4.20898 68.0134 4.34927 68.6347 4.61983C69.256 4.89038 69.7069 5.40143 70.0175 6.13294C70.3282 6.86444 70.4785 7.89656 70.4785 9.23932C70.4785 10.5821 70.3282 11.6142 70.0175 12.3457C69.7069 13.0772 69.256 13.5883 68.6447 13.8688C68.0334 14.1494 67.2218 14.2897 66.1997 14.2897C65.1876 14.2997 64.3759 14.1494 63.7647 13.8688ZM67.7929 12.8267C68.1837 12.6463 68.4743 12.2856 68.6848 11.7344C68.8952 11.1833 68.9954 10.3516 68.9954 9.24934C68.9954 8.14708 68.8952 7.31537 68.6948 6.77425C68.4944 6.22312 68.1938 5.86238 67.803 5.68201C67.4122 5.50164 66.871 5.41145 66.1997 5.41145C65.5082 5.41145 64.9772 5.50164 64.5864 5.68201C64.1956 5.86238 63.905 6.22312 63.7045 6.77425C63.5041 7.32539 63.4039 8.14708 63.4039 9.24934C63.4039 10.3516 63.5041 11.1833 63.7045 11.7344C63.905 12.2856 64.2056 12.6563 64.5864 12.8267C64.9772 13.0071 65.5082 13.0972 66.1997 13.0972C66.871 13.0972 67.4021 13.0071 67.7929 12.8267Z"
          fill="#0284C7"
        />
        <path
          d="M74.3769 5.54113H72.8638V4.5992L74.3769 4.33866V3.21636C74.3769 2.12411 74.5873 1.31244 75.0082 0.791372C75.429 0.270302 76.1605 0.00976562 77.1927 0.00976562C77.824 0.00976562 78.4553 0.0698895 79.0866 0.190137V1.22226H77.4432C76.8119 1.22226 76.391 1.37257 76.1605 1.67318C75.9301 1.9738 75.8198 2.46481 75.8198 3.13619V4.33866H78.8761V5.54113H75.8198V14.1889H74.3669V5.54113H74.3769Z"
          fill="#0284C7"
        />
        <path
          d="M82.6741 13.4381C82.2231 12.9371 82.0027 12.1254 82.0328 10.9931L82.0929 5.54186H80.5297V4.59993L82.1129 4.33939L82.3534 1.59375H83.4757V4.33939H86.3115V5.54186H83.4757V10.9931C83.4757 11.7446 83.616 12.2557 83.8966 12.5362C84.1772 12.8168 84.5379 12.9671 84.9688 13.0072L86.1713 13.1174V14.1896H84.8285C83.8465 14.1796 83.125 13.9391 82.6741 13.4381Z"
          fill="#0284C7"
        />
        <path
          d="M88.1837 4.33789H89.6768L92.0917 12.8153L94.5769 4.33789H95.8495L98.3346 12.8153L100.679 4.33789H102.172L99.2064 14.1781H97.6031L95.1881 6.2919L92.7531 14.1781H91.1699L88.1837 4.33789Z"
          fill="#0284C7"
        />
        <path
          d="M104.598 13.6283C104.137 13.1874 103.906 12.5862 103.906 11.8246V11.1232C103.906 10.3215 104.167 9.69024 104.688 9.2293C105.209 8.75833 105.97 8.52785 106.983 8.52785H110.319V7.31536C110.319 6.65401 110.139 6.163 109.778 5.84234C109.418 5.52168 108.746 5.36135 107.774 5.36135H104.718V4.49958C105.87 4.29917 107.073 4.20898 108.315 4.20898C109.508 4.20898 110.38 4.44948 110.941 4.94049C111.502 5.42147 111.782 6.19306 111.782 7.25524V14.1995H110.66L110.38 13.0772C110.289 13.1473 110.029 13.2876 109.578 13.4981C109.127 13.7085 108.616 13.8989 108.035 14.0592C107.454 14.2296 106.912 14.3097 106.391 14.3097C105.66 14.2997 105.059 14.0692 104.598 13.6283ZM108.255 13.0271C108.736 12.9068 109.167 12.7766 109.558 12.6363C109.949 12.506 110.199 12.4058 110.319 12.3557V9.25936L107.313 9.38963C106.642 9.40967 106.141 9.58002 105.83 9.89065C105.52 10.2013 105.359 10.6121 105.359 11.1432V11.5841C105.359 12.1453 105.52 12.5561 105.85 12.8167C106.171 13.0772 106.572 13.2075 107.043 13.2075C107.373 13.2075 107.774 13.1473 108.255 13.0271Z"
          fill="#0284C7"
        />
        <path
          d="M115.451 4.33874H116.554L116.904 6.05226C117.385 5.47107 117.896 5.03016 118.457 4.7095C119.009 4.38885 119.62 4.22852 120.281 4.22852C120.612 4.22852 120.923 4.25858 121.203 4.3187V5.81177C120.652 5.75165 120.291 5.72158 120.131 5.72158C119.48 5.72158 118.918 5.84183 118.447 6.0723C117.976 6.30278 117.465 6.68356 116.904 7.19461V14.179H115.451V4.33874Z"
          fill="#0284C7"
        />
        <path
          d="M125.261 13.8388C124.68 13.5281 124.259 13.0171 123.998 12.2856C123.738 11.5641 123.607 10.542 123.607 9.23932C123.607 7.92663 123.738 6.90452 124.008 6.18304C124.269 5.46156 124.7 4.95051 125.291 4.64989C125.882 4.35929 126.694 4.20898 127.746 4.20898C128.638 4.20898 129.359 4.30919 129.9 4.49958C130.441 4.69999 130.842 5.03067 131.103 5.50164C131.363 5.97261 131.494 6.63397 131.494 7.46568C131.494 8.29739 131.253 8.90864 130.762 9.2794C130.281 9.65017 129.59 9.84056 128.688 9.84056H125.07C125.08 10.6923 125.171 11.3436 125.331 11.8046C125.491 12.2655 125.782 12.6062 126.213 12.8167C126.644 13.0271 127.265 13.1373 128.077 13.1373H131.243V14.0191C130.582 14.1093 129.991 14.1695 129.469 14.2095C128.958 14.2496 128.367 14.2697 127.716 14.2697C126.664 14.2997 125.842 14.1394 125.261 13.8388ZM128.558 8.89862C129.119 8.89862 129.53 8.79842 129.79 8.58798C130.051 8.37755 130.181 8.01681 130.181 7.49574C130.181 6.67405 130.001 6.10288 129.64 5.79224C129.279 5.4816 128.648 5.32127 127.746 5.32127C127.034 5.32127 126.483 5.42148 126.103 5.63191C125.722 5.84234 125.451 6.19306 125.291 6.70411C125.131 7.20514 125.05 7.93665 125.05 8.89862H128.558Z"
          fill="#0284C7"
        />
        <path
          d="M49.6252 22.666H52.441L54.6355 32.2858L57.2008 22.666H59.706L62.2512 32.2858L64.4457 22.666H67.2615L63.9948 36.304H61.2091L58.4434 26.6843L55.6576 36.304H52.8719L49.6252 22.666Z"
          fill="#0284C7"
        />
        <path
          d="M70.3383 35.9538C69.697 35.6632 69.236 35.1522 68.9454 34.4207C68.6548 33.6992 68.5145 32.6771 68.5145 31.3644C68.5145 30.0116 68.6448 28.9695 68.9154 28.238C69.1859 27.5065 69.6268 26.9954 70.2481 26.6948C70.8694 26.4042 71.7412 26.2539 72.8735 26.2539C73.8856 26.2539 74.6772 26.3541 75.2484 26.5445C75.8296 26.7449 76.2504 27.0856 76.511 27.5766C76.7715 28.0676 76.9118 28.7591 76.9118 29.6609C76.9118 30.6229 76.6412 31.3043 76.0901 31.7051C75.539 32.1059 74.7473 32.3164 73.7052 32.3164H71.2201C71.2401 32.8475 71.3203 33.2583 71.4606 33.5389C71.5909 33.8295 71.8314 34.0399 72.1821 34.1702C72.5228 34.3004 73.0338 34.3606 73.6952 34.3606H76.5911V35.9639C75.9398 36.1041 75.3486 36.2043 74.8175 36.2745C74.2864 36.3446 73.6751 36.3847 72.9737 36.3847C71.8614 36.3947 70.9796 36.2444 70.3383 35.9538ZM73.4346 30.703C73.8154 30.703 74.086 30.6229 74.2563 30.4726C74.4267 30.3223 74.5069 30.0617 74.5069 29.691C74.5069 29.1499 74.3866 28.7691 74.1361 28.5586C73.8856 28.3482 73.4747 28.238 72.8835 28.238C72.4526 28.238 72.1219 28.3081 71.8815 28.4484C71.641 28.5887 71.4706 28.8392 71.3604 29.1899C71.2502 29.5507 71.19 30.0517 71.19 30.703H73.4346Z"
          fill="#0284C7"
        />
        <path
          d="M83.6555 36.1329C83.2045 35.9526 82.7737 35.692 82.3528 35.3613L81.9119 36.3033H79.6272V22.2344H82.3528V27.0843C82.7837 26.8539 83.2446 26.6535 83.7356 26.4931C84.2266 26.3328 84.6776 26.2526 85.0984 26.2526C85.9502 26.2526 86.6216 26.423 87.1326 26.7737C87.6437 27.1244 88.0144 27.6756 88.2449 28.4371C88.4754 29.1887 88.5956 30.2007 88.5956 31.4533C88.5956 33.1268 88.315 34.3693 87.7639 35.191C87.2128 36.0127 86.361 36.4135 85.2187 36.4135C84.6375 36.4135 84.1064 36.3233 83.6555 36.1329ZM85.4492 33.5376C85.7398 33.1067 85.88 32.3652 85.88 31.3231C85.88 30.5214 85.8099 29.9102 85.6596 29.4893C85.5093 29.0684 85.3189 28.7878 85.0784 28.6476C84.8379 28.5173 84.5573 28.4471 84.2166 28.4471C83.6154 28.4471 82.9941 28.6275 82.3528 28.9983V33.6979C82.944 34.0186 83.5653 34.1789 84.2166 34.1789C84.7477 34.1789 85.1586 33.9685 85.4492 33.5376Z"
          fill="#0284C7"
        />
        <path
          d="M91.9217 35.2531C91.3405 34.4815 91.0499 33.2089 91.0499 31.4553C91.0499 30.2027 91.1601 29.2006 91.3906 28.4491C91.6211 27.6975 92.0019 27.1464 92.543 26.7857C93.0841 26.4249 93.8256 26.2546 94.7776 26.2546C95.5892 26.2546 96.431 26.4049 97.3028 26.7155V22.2363H100.048V36.3052H97.7437L97.3028 35.3633C96.9621 35.6539 96.5412 35.9044 96.0502 36.1048C95.5592 36.3052 95.0782 36.4054 94.5972 36.4054C93.3847 36.4155 92.5029 36.0247 91.9217 35.2531ZM97.2927 33.6698V28.6896C96.9721 28.5693 96.6915 28.4691 96.431 28.399C96.1805 28.3288 95.9199 28.2988 95.6494 28.2988C95.1684 28.2988 94.7976 28.3789 94.5371 28.5493C94.2766 28.7196 94.0761 29.0203 93.9559 29.4511C93.8356 29.8921 93.7755 30.5133 93.7755 31.325C93.7755 32.0966 93.8356 32.6878 93.9459 33.1087C94.0661 33.5195 94.2465 33.8101 94.497 33.9704C94.7475 34.1408 95.0982 34.2209 95.5391 34.2209C96.1304 34.2209 96.7116 34.0406 97.2927 33.6698Z"
          fill="#0284C7"
        />
        <path
          d="M103.277 35.7426C102.816 35.2917 102.585 34.6805 102.585 33.9089V33.0271C102.585 32.2455 102.856 31.6142 103.407 31.1432C103.958 30.6722 104.77 30.4417 105.852 30.4417H108.377V29.7603C108.377 29.4297 108.317 29.1691 108.207 28.9787C108.096 28.7883 107.886 28.6481 107.575 28.5579C107.265 28.4677 106.814 28.4176 106.213 28.4176H103.246V26.8343C104.459 26.4636 105.782 26.2832 107.205 26.2832C108.507 26.2832 109.479 26.5337 110.131 27.0247C110.772 27.5157 111.103 28.3675 111.103 29.59V36.3138H108.948L108.507 35.2616C108.367 35.4019 108.137 35.5522 107.786 35.7426C107.445 35.923 107.034 36.0833 106.563 36.2236C106.092 36.3539 105.611 36.424 105.12 36.424C104.349 36.414 103.737 36.1936 103.277 35.7426ZM107.575 34.3197C107.996 34.1894 108.257 34.0993 108.367 34.0291V31.7244L106.704 31.8346C105.772 31.9048 105.301 32.3156 105.301 33.0471V33.4479C105.301 34.1494 105.701 34.5001 106.513 34.5001C106.814 34.5101 107.154 34.45 107.575 34.3197Z"
          fill="#0284C7"
        />
        <path
          d="M114.067 26.4047H116.312L116.793 27.4168C117.194 27.0861 117.685 26.8055 118.246 26.5751C118.807 26.3446 119.368 26.2344 119.909 26.2344C121.032 26.2344 121.823 26.555 122.284 27.1964C122.755 27.8377 122.986 28.6994 122.986 29.7817V36.3051H120.26V30.1324C120.26 29.6614 120.13 29.3107 119.879 29.0602C119.629 28.8097 119.278 28.6894 118.837 28.6894C118.166 28.6894 117.474 28.9399 116.793 29.4309V36.3051H114.067V26.4047Z"
          fill="#0284C7"
        />
        <path
          d="M130.672 36.3747L130.121 37.2365C130.502 37.2766 130.802 37.3968 131.023 37.6072C131.243 37.8177 131.354 38.1083 131.354 38.469C131.354 38.94 131.183 39.3007 130.853 39.5613C130.522 39.8218 130.031 39.9521 129.38 39.9521H128.498V38.8297L128.828 38.7696C129.329 38.7195 129.58 38.5091 129.58 38.1383C129.58 37.7676 129.299 37.5471 128.728 37.477L129.41 36.3847C128.217 36.3246 127.295 35.9138 126.634 35.1522C125.973 34.3906 125.652 33.1381 125.652 31.3945C125.652 30.0818 125.812 29.0497 126.133 28.2981C126.453 27.5466 126.914 27.0155 127.536 26.7149C128.147 26.4042 128.929 26.2539 129.881 26.2539C131.073 26.2539 132.225 26.4042 133.328 26.7149V28.2781H130.732C130.141 28.2781 129.68 28.3683 129.349 28.5386C129.019 28.709 128.778 29.0196 128.618 29.4605C128.468 29.9014 128.387 30.5427 128.387 31.3744C128.387 32.1961 128.468 32.8174 128.618 33.2483C128.768 33.6691 129.019 33.9597 129.349 34.11C129.68 34.2604 130.151 34.3405 130.772 34.3405H133.478V35.8937C132.616 36.1643 131.684 36.3246 130.672 36.3747Z"
          fill="#0284C7"
        />
        <path
          d="M136.174 35.7426C135.713 35.2917 135.482 34.6805 135.482 33.9089V33.0271C135.482 32.2455 135.753 31.6142 136.304 31.1432C136.855 30.6722 137.667 30.4417 138.749 30.4417H141.274V29.7603C141.274 29.4297 141.214 29.1691 141.104 28.9787C140.994 28.7883 140.783 28.6481 140.473 28.5579C140.162 28.4677 139.711 28.4176 139.11 28.4176H136.144V26.8343C137.356 26.4636 138.679 26.2832 140.102 26.2832C141.405 26.2832 142.377 26.5337 143.028 27.0247C143.669 27.5157 144 28.3675 144 29.59V36.3138H141.846L141.405 35.2616C141.264 35.4019 141.034 35.5522 140.683 35.7426C140.342 35.923 139.932 36.0833 139.461 36.2236C138.99 36.3539 138.509 36.424 138.018 36.424C137.246 36.414 136.635 36.1936 136.174 35.7426ZM140.483 34.3197C140.904 34.1894 141.164 34.0993 141.274 34.0291V31.7244L139.611 31.8346C138.679 31.9048 138.208 32.3156 138.208 33.0471V33.4479C138.208 34.1494 138.609 34.5001 139.421 34.5001C139.711 34.5101 140.062 34.45 140.483 34.3197Z"
          fill="#0284C7"
        />
      </svg>
