<svg width="160" height="122" viewBox="0 0 160 122" fill="none" xmlns="http://www.w3.org/2000/svg">
<path d="M89.5317 25.4127C90.901 24.2663 92.3715 23.2535 93.9294 22.3846C97.8914 20.1741 102.405 18.925 107.195 18.925C107.669 18.925 108.138 18.9352 108.608 18.961C110.011 19.0381 111.389 19.2231 112.734 19.5007C112.855 19.5262 112.986 19.5471 113.112 19.5729C113.445 19.6497 113.779 19.7373 114.113 19.8299C114.249 19.8658 114.389 19.8913 114.529 19.9322C114.916 20.0404 115.303 20.164 115.685 20.2921C116.067 20.4209 116.45 20.5546 116.827 20.6988C116.977 20.755 117.127 20.8066 117.277 20.8681C117.417 20.9197 117.548 20.9865 117.688 21.043C118.09 21.2127 118.491 21.3872 118.883 21.5778C119.923 22.0711 120.925 22.6314 121.892 23.2486C122.057 23.3513 122.217 23.449 122.376 23.5517C122.715 23.7779 123.044 24.0145 123.368 24.2509C123.431 24.2973 123.494 24.3385 123.557 24.3846C123.77 24.5386 123.973 24.7086 124.181 24.873C124.355 25.0067 124.524 25.1355 124.694 25.2741C124.863 25.4127 125.028 25.5618 125.192 25.7056C125.39 25.8753 125.593 26.04 125.787 26.2198C126.039 26.4464 126.281 26.6876 126.527 26.9243C126.629 27.027 126.735 27.1195 126.837 27.2224C127.04 27.4281 127.234 27.6389 127.432 27.8494C127.567 27.9933 127.707 28.1322 127.838 28.276C128.085 28.5487 128.322 28.8315 128.559 29.1142C128.636 29.2067 128.714 29.2891 128.787 29.3816C128.99 29.6281 129.183 29.8854 129.376 30.1371C129.478 30.2708 129.585 30.3996 129.686 30.5382C129.826 30.7232 129.957 30.9239 130.093 31.1139C130.243 31.3247 130.392 31.5254 130.533 31.736C130.678 31.9521 130.809 32.1731 130.949 32.3944C131.075 32.5895 131.206 32.7847 131.322 32.9854C131.491 33.2577 131.641 33.5405 131.8 33.8233C131.883 33.9723 131.975 34.1214 132.057 34.2757C132.164 34.4659 132.255 34.6663 132.357 34.867C132.483 35.1083 132.613 35.3554 132.729 35.6022C132.826 35.8075 132.914 36.0132 133.005 36.2191C133.121 36.4708 133.237 36.7176 133.344 36.9697C133.474 37.2881 133.596 37.6121 133.721 37.936C133.774 38.0851 133.837 38.2289 133.89 38.378C133.997 38.6608 134.089 38.9537 134.186 39.242C134.249 39.4319 134.316 39.6222 134.379 39.8177C134.447 40.0436 134.51 40.2802 134.572 40.5117C134.645 40.7686 134.727 41.0256 134.795 41.2878C134.848 41.4934 134.887 41.7045 134.936 41.9098C135.008 42.2031 135.081 42.496 135.143 42.7892C135.187 43.0203 135.226 43.2518 135.264 43.478C135.318 43.7604 135.376 44.0383 135.419 44.3211C135.453 44.5522 135.477 44.7889 135.511 45.02C135.55 45.3028 135.593 45.5911 135.622 45.8788C135.647 46.0998 135.656 46.326 135.675 46.5469C135.704 46.8506 135.734 47.1537 135.753 47.4567C135.767 47.6986 135.767 47.9454 135.777 48.1867C135.787 48.4747 135.801 48.7676 135.801 49.0608C135.806 49.3181 135.797 49.5803 135.791 49.8372C135.787 50.12 135.787 50.4025 135.777 50.6852C135.772 50.7575 135.767 50.8294 135.763 50.9065C135.743 51.323 135.719 51.7342 135.685 52.1455C135.666 52.3253 135.642 52.5054 135.622 52.68C135.593 52.9833 135.564 53.2919 135.525 53.5901C135.497 53.7957 135.458 54.0013 135.429 54.2069C135.385 54.4743 135.352 54.747 135.303 55.0141C135.264 55.2249 135.216 55.4305 135.177 55.6361C135.124 55.8983 135.076 56.1605 135.017 56.4178C134.969 56.6283 134.911 56.8391 134.858 57.0497C134.795 57.2965 134.742 57.5485 134.674 57.7904C134.616 58.0009 134.548 58.2014 134.49 58.4073C134.418 58.6541 134.345 58.9006 134.267 59.1422C134.205 59.3429 134.132 59.5381 134.064 59.7332C133.978 59.9804 133.895 60.2272 133.808 60.4687C133.736 60.6538 133.658 60.8339 133.585 61.0189C133.489 61.2706 133.392 61.5171 133.291 61.7639C133.218 61.9339 133.135 62.1036 133.058 62.2729C132.947 62.525 132.836 62.7819 132.715 63.0287C132.642 63.1879 132.56 63.3373 132.483 63.4916C132.352 63.7485 132.226 64.0107 132.091 64.2625C132.018 64.4014 131.936 64.5351 131.863 64.6688C131.713 64.9362 131.568 65.2036 131.414 65.4655C131.341 65.5838 131.263 65.7021 131.191 65.8201C131.026 66.0928 130.862 66.3651 130.688 66.6273C130.62 66.7355 130.543 66.8332 130.475 66.9362C130.291 67.2134 130.102 67.486 129.914 67.7531C129.846 67.8459 129.773 67.9332 129.706 68.026C129.507 68.2981 129.299 68.5759 129.091 68.843C129.028 68.9202 128.966 68.9921 128.903 69.0692C128.68 69.3468 128.453 69.6194 128.22 69.8868C128.167 69.9535 128.109 70.0153 128.051 70.0771C127.809 70.3546 127.563 70.622 127.311 70.8891C127.257 70.946 127.204 70.997 127.151 71.0538C126.89 71.3209 126.629 71.5886 126.363 71.8456C126.309 71.8969 126.256 71.943 126.203 71.9947C125.932 72.2516 125.656 72.5086 125.371 72.7557C125.322 72.8018 125.269 72.8427 125.216 72.8891C124.93 73.1356 124.64 73.3827 124.341 73.619C124.292 73.6602 124.239 73.7014 124.185 73.7426C123.886 73.979 123.586 74.2104 123.276 74.4314C123.223 74.4726 123.17 74.5085 123.112 74.5497C122.807 74.7707 122.497 74.9865 122.178 75.1921C122.12 75.2333 122.057 75.2693 121.999 75.3052C121.685 75.5108 121.37 75.7112 121.046 75.9015C120.983 75.9375 120.915 75.9734 120.852 76.0146C120.533 76.1999 120.209 76.38 119.885 76.5543C119.807 76.5958 119.735 76.6318 119.657 76.6677C119.338 76.8322 119.019 76.9966 118.695 77.1509C118.603 77.1921 118.516 77.228 118.429 77.2692C118.114 77.4131 117.794 77.5569 117.471 77.6857C117.369 77.7318 117.267 77.7678 117.166 77.809C116.856 77.9322 116.542 78.0558 116.227 78.1689C116.111 78.2097 115.99 78.246 115.869 78.2869C115.569 78.3899 115.264 78.4928 114.959 78.585C114.819 78.6262 114.684 78.6622 114.543 78.6981C114.254 78.7805 113.963 78.8678 113.663 78.9397C113.508 78.9757 113.353 79.012 113.194 79.0479C112.913 79.1094 112.633 79.1764 112.352 79.2326C112.178 79.2637 111.999 79.2895 111.82 79.3202C111.554 79.3719 111.288 79.418 111.017 79.4539C110.823 79.485 110.625 79.5056 110.427 79.5259C110.175 79.5569 109.918 79.5925 109.662 79.6134C109.449 79.6337 109.231 79.6442 109.014 79.6596C108.782 79.6749 108.545 79.6955 108.308 79.7057C107.993 79.7161 107.683 79.7161 107.369 79.7161C107.103 79.7161 106.832 79.7266 106.566 79.7213C106.261 79.7109 105.956 79.6906 105.647 79.6749C105.385 79.6596 105.124 79.6494 104.868 79.6288C104.558 79.603 104.253 79.5569 103.948 79.5209C103.697 79.4899 103.441 79.4693 103.194 79.4284C102.884 79.3869 102.579 79.3258 102.275 79.2689C102.033 79.2225 101.791 79.1865 101.549 79.1352C101.239 79.0685 100.935 78.9858 100.625 78.909C100.397 78.8527 100.165 78.8011 99.9378 78.7393C99.6188 78.6468 99.309 78.5439 98.9943 78.4412C98.7817 78.3794 98.5688 78.3179 98.3658 78.246C98.0222 78.1277 97.6884 77.994 97.3543 77.8655C97.1805 77.7936 97.0014 77.7367 96.8273 77.6651C96.324 77.454 95.8259 77.2333 95.3371 76.9914C95.0809 76.8681 94.839 76.7191 94.6163 76.5393C94.6163 76.5393 103.446 84.4746 114.713 83.9524C123.648 83.9524 131.757 80.2149 137.737 74.1228C142.836 67.0542 145.806 58.1755 145.642 48.5675C145.632 48.1148 145.618 47.6627 145.598 47.205C145.057 35.8899 140.127 25.7726 132.609 18.7243C127.442 15.213 121.302 13.1826 114.713 13.1826C104.655 13.1826 95.642 17.9224 89.5317 25.4127Z" fill="url(#paint0_linear_6_350)"/>
<path d="M95.2521 37.3186C94.8747 37.5295 94.5117 37.756 94.1539 38.0025C94.1487 38.0025 94.1487 38.0025 94.1487 38.0077C91.5897 39.7606 90.0027 42.6292 89.548 45.7707C89.5431 45.8119 89.5335 45.8527 89.5286 45.8939C89.519 45.9969 89.5092 46.0992 89.4997 46.1973C89.4268 46.84 89.3979 47.4876 89.4222 48.1407C89.432 48.3921 89.432 48.6442 89.4366 48.8962C89.4366 49.076 89.4464 49.2515 89.4464 49.431C89.4464 49.652 89.4366 49.8677 89.432 50.0835C89.4268 50.2944 89.4268 50.5052 89.4172 50.716C89.4077 50.9527 89.3883 51.1891 89.3692 51.4307C89.3591 51.616 89.3496 51.8063 89.3354 51.9907C89.3062 52.3558 89.2674 52.7157 89.2237 53.0756C89.2191 53.1374 89.2139 53.1992 89.2044 53.2554C89.1803 53.4718 89.1465 53.6824 89.1127 53.8932C89.0834 54.0988 89.0592 54.3097 89.0253 54.515C89.0207 54.5461 89.0109 54.5817 89.0062 54.618C88.9432 54.9985 88.8755 55.379 88.7983 55.7543C88.7398 56.0475 88.6675 56.3401 88.5995 56.6333C88.5755 56.7516 88.5515 56.8644 88.5223 56.9828C88.4737 57.1884 88.411 57.3888 88.3577 57.5944C88.3045 57.7948 88.2562 57.9955 88.1981 58.1962C88.1787 58.2629 88.1596 58.3244 88.1402 58.3914C87.8062 59.5274 87.4096 60.6379 86.9549 61.7229C86.9115 61.8357 86.858 61.9438 86.8097 62.0566C86.6934 62.3244 86.5775 62.5914 86.4566 62.8588C86.1323 63.5427 85.789 64.2112 85.4211 64.8693C85.3875 64.9307 85.3534 64.9922 85.3195 65.054C85.3051 65.0746 85.2952 65.1001 85.2811 65.1207C84.8839 65.8101 84.468 66.4881 84.0231 67.1462C83.9552 67.239 83.7423 67.5319 83.4762 67.8971C81.2074 70.7294 79.7996 72.1281 77.1293 74.2102C71.1009 80.6924 62.7265 84.708 53.4667 84.708C43.7765 84.708 35.0538 80.3125 28.9676 73.29C29.1854 74.5596 29.0161 75.845 28.368 77.1144L25.7891 81.8081C25.5811 82.1837 25.5039 82.6465 25.8035 82.9548L30.2642 87.5403C30.5642 87.8541 30.9995 87.7564 31.3431 87.5249L35.6731 84.6358C37.3568 83.505 39.5047 83.4226 41.2317 84.507C41.8704 84.9081 42.5137 85.2889 43.1717 85.6488C44.7053 86.5534 45.6875 88.0954 45.7841 89.9773L45.7601 96.0433C45.7552 96.4752 45.905 96.9178 46.3163 97.0306L52.3346 98.6344C52.7413 98.7423 53.0701 98.4235 53.2587 98.0433L55.5857 93.37C56.5775 91.3863 58.6288 90.2392 60.7044 90.1934C61.3526 90.1934 61.9913 90.1725 62.6348 90.1415C64.2797 90.0852 66.0939 90.9643 66.9356 92.5164C67.8742 94.2647 68.8125 96.0126 69.7513 97.7602C69.9544 98.1411 70.2931 98.4441 70.6995 98.3206L76.6645 96.5111C77.0663 96.3876 77.2066 95.9407 77.1918 95.5085C77.1192 93.4935 77.0515 91.4831 76.9789 89.468C76.926 87.6848 78.0289 85.9208 79.456 85.047C80.0171 84.708 80.5687 84.3687 81.1203 84.0032C82.533 83.1137 84.2841 82.8211 85.8567 83.304C91.9669 87.6482 99.3061 90.1934 107.197 90.1934C119.635 90.1934 130.709 83.8849 137.738 74.1226C131.759 80.2147 123.646 83.643 114.715 83.9522C107.215 84.2119 100.371 81.2066 94.7685 76.6518L94.6181 76.5387C94.2502 76.2461 93.9312 75.881 93.6841 75.459C92.8375 73.8091 92.9055 71.948 93.7568 70.3184C94.1388 69.645 94.4972 68.9556 94.8408 68.2619C95.7693 66.3704 97.6369 65.2393 99.6301 65.2547L104.739 65.2802C105.145 65.2851 105.561 65.1262 105.663 64.6888L107.177 58.294C107.279 57.8624 106.979 57.512 106.621 57.312L102.102 54.7723C100.211 53.6212 99.3301 51.7602 99.2335 49.5029C99.2382 48.6958 99.2188 47.8834 99.1705 47.0763C99.0884 45.4154 99.9058 43.6886 101.285 42.8606C102.973 41.8377 104.666 40.8093 106.355 39.7867C106.708 39.5707 106.998 39.2107 106.882 38.7841L106.118 35.9411C104.879 35.6048 103.615 35.4379 102.355 35.4379C99.8988 35.4379 97.4585 36.0717 95.2521 37.3186Z" fill="url(#paint1_linear_6_350)"/>
<path d="M68.2854 0.613213L65.9631 5.28598C64.9713 7.26537 62.9154 8.41181 60.8447 8.46313C60.1962 8.46313 59.5578 8.4785 58.9143 8.50955C57.2693 8.5661 55.4552 7.68675 54.6132 6.13951C53.6746 4.39156 52.7363 2.63838 51.7974 0.890743C51.5944 0.515457 51.256 0.212112 50.8496 0.335363L44.8842 2.13985C44.4779 2.26341 44.3425 2.71032 44.3573 3.14738C44.4296 5.1575 44.4972 7.17285 44.5698 9.18266C44.6234 10.9721 43.5202 12.7351 42.0928 13.6092C41.5316 13.9436 40.9803 14.2879 40.4288 14.6478C38.6436 15.7684 36.3308 15.9485 34.5071 14.8175L30.2064 12.1493C29.8529 11.9332 29.4176 11.8511 29.1272 12.1699L24.812 16.9044C24.5167 17.2284 24.6086 17.686 24.8264 18.0561L27.8597 23.1917C28.3196 24.0812 28.5079 25.0322 28.4547 25.9681C34.5603 18.5961 43.5008 13.9436 53.4667 13.9436C62.6151 13.9436 70.8976 17.8606 76.9112 24.2045C77.429 23.5726 84.7101 14.807 89.9685 12.5658C88.1787 13.234 85.6727 14.18 84.6036 14.5808C84.1969 14.7351 83.7761 14.8586 83.3457 14.8946C83.2199 14.9097 83.0894 14.9149 82.9636 14.9149C82.0493 14.9097 81.1347 14.6579 80.3173 14.1437C79.6784 13.7482 79.0351 13.3677 78.3771 13.0077C76.8435 12.098 75.8616 10.5553 75.7597 8.67397L75.7887 2.61288C75.7887 2.17582 75.6438 1.73354 75.2325 1.62565L69.2142 0.0215511C69.1589 0.00710487 69.1054 3.43323e-05 69.0534 3.43323e-05C68.721 3.43323e-05 68.4526 0.279728 68.2854 0.613213Z" fill="url(#paint2_linear_6_350)"/>
<path d="M91.9638 11.81H91.9589C91.9395 11.815 91.2234 12.0876 90.2223 12.4632C90.135 12.4939 90.0531 12.5299 89.9655 12.5655C84.707 14.8071 77.426 23.5723 76.9082 24.2049C76.8839 24.2304 76.8744 24.2412 76.8744 24.2412C71.7849 31.1708 68.7368 39.8743 68.7368 49.3231V49.3287C68.7368 49.8988 68.974 50.413 69.361 50.7886C69.7483 51.1633 70.2851 51.395 70.8755 51.395H76.4489C77.629 51.395 78.5821 50.4696 78.5821 49.3231C78.5821 48.2541 78.6355 47.0096 78.7949 45.6219C78.9546 44.2336 79.2161 42.7122 79.6465 41.0924C80.5414 37.7204 81.8525 35.0264 83.0332 33.0525C83.3525 32.5177 83.662 32.0342 83.9521 31.6024C85.5244 29.2735 87.4016 27.1863 89.5255 25.418L89.5304 25.4125C95.6407 17.9228 104.654 13.1824 114.712 13.1824C121.301 13.1824 127.44 15.2131 132.607 18.7244C126.061 12.576 117.561 8.75646 108.287 8.47892C107.918 8.46785 107.551 8.46231 107.186 8.46231C101.782 8.46231 96.6354 9.66254 91.9638 11.81Z" fill="url(#paint3_linear_6_350)"/>
<path d="M28.4547 25.9682C28.4113 26.7803 28.184 27.5828 27.7921 28.3383C27.41 29.0114 27.0519 29.6949 26.7034 30.3945C26.0988 31.6279 25.0926 32.538 23.9122 33.0163C23.2831 33.2732 22.6109 33.4017 21.9187 33.3968L16.8101 33.3709C16.4037 33.3709 15.9878 33.5301 15.8811 33.962L14.3715 40.3575C14.2703 40.7893 14.5699 41.1385 14.928 41.3447L19.4465 43.8844C19.824 44.1153 20.1627 44.3722 20.458 44.6556C21.6578 45.7916 22.2334 47.3437 22.3155 49.1482C22.3106 49.9606 22.33 50.7677 22.3737 51.5755C22.4463 53.0707 21.8027 54.6078 20.6706 55.5026C20.5402 55.6107 20.4045 55.7026 20.2642 55.7902C18.5756 56.8183 16.8827 57.8415 15.1944 58.87C14.836 59.0805 14.5508 59.4404 14.6668 59.8723L16.3699 66.2112C16.4859 66.6431 16.9067 66.7869 17.3134 66.7712C19.2577 66.6941 21.2028 66.6172 23.1474 66.5401C23.5975 66.5195 24.0426 66.5862 24.4684 66.7254C25.5423 67.0798 26.4954 67.8977 27.0371 68.9409C27.4004 69.6499 27.7825 70.3498 28.1889 71.033C28.5759 71.7738 28.8466 72.5296 28.9675 73.29C35.0538 80.3125 43.7765 84.708 53.4667 84.708C62.7265 84.708 71.101 80.693 77.1294 74.2102C77.0466 74.2769 76.9599 74.3442 76.8725 74.4109C72.2767 77.763 66.7129 79.7267 60.714 79.7267C56.7082 79.7267 52.9009 78.8424 49.4419 77.2641C49.3884 77.2383 49.3302 77.2125 49.2773 77.1867C48.8032 76.966 48.3338 76.7342 47.8693 76.4877C47.8403 76.4724 47.8114 76.4518 47.7822 76.4364C42.3106 73.4753 37.7339 68.6685 34.9618 62.5663C34.8748 62.3655 34.7831 62.1701 34.6957 61.9651C34.6668 61.8981 34.6376 61.8258 34.6086 61.7591C34.4201 61.3015 34.2312 60.8438 34.0623 60.376C34.0623 60.376 34.0623 60.3708 34.0571 60.3708C33.9119 59.9599 33.767 59.5486 33.6362 59.1269C33.6073 59.0396 33.5781 58.9471 33.5492 58.8543C33.0896 57.3688 32.7459 55.8726 32.509 54.3822C32.4995 54.3152 32.4847 54.2479 32.4752 54.1812C32.4364 53.9295 32.4026 53.6778 32.3688 53.4257C32.3543 53.3022 32.3395 53.1786 32.3251 53.0609C32.3011 52.8497 32.2768 52.6389 32.2577 52.4281C32.2236 52.0893 32.1946 51.7497 32.175 51.4055C32.1411 50.9118 32.1269 50.4186 32.1122 49.9249C32.1122 49.8014 32.1073 49.683 32.1073 49.5598C32.1073 49.2875 32.1122 49.025 32.1171 48.7576C32.122 48.4957 32.1269 48.2338 32.1365 47.9707C32.146 47.6932 32.1654 47.4157 32.1851 47.1329C32.1996 46.9171 32.2137 46.6961 32.2331 46.4755C32.2623 46.1306 32.3011 45.786 32.3445 45.4473C32.3592 45.3032 32.3737 45.159 32.3931 45.0204C32.4509 44.588 32.5186 44.1672 32.5912 43.7403C32.601 43.6886 32.6106 43.6373 32.6201 43.5863C33.2446 40.1313 34.4296 36.8309 36.0985 33.8283C36.1084 33.8188 36.1133 33.808 36.1182 33.7923C36.3117 33.4481 36.5148 33.1091 36.7178 32.7747C36.7809 32.6717 36.8439 32.5638 36.9067 32.4609C37.0423 32.2451 37.1873 32.0342 37.3275 31.824C37.4727 31.6024 37.613 31.3817 37.7678 31.1656C37.8065 31.1088 37.8499 31.0528 37.8887 30.996C38.2083 30.5438 38.5421 30.1065 38.8854 29.6796C38.8999 29.659 38.9146 29.6439 38.9288 29.6233C44.173 23.0788 51.9864 18.9199 60.714 18.9199C66.7129 18.9199 72.2767 20.8891 76.8774 24.2412C76.8774 24.2412 76.887 24.2304 76.9113 24.2049C70.8976 17.861 62.6152 13.9438 53.4667 13.9438C43.5008 13.9438 34.5603 18.5962 28.4547 25.9682Z" fill="url(#paint4_linear_6_350)"/>
<path d="M5.53061 121.423V109.35H0V105.236H16.8692V109.35H11.3609V121.423H5.53061Z" fill="#575756"/>
<path d="M24.6851 109.938L23.0489 115.105H26.3214L24.6851 109.938ZM28.3033 121.423L27.4737 119.073H21.9422L21.0901 121.423H14.7065L20.8824 105.236H28.3033L34.4792 121.423H28.3033Z" fill="#575756"/>
<path d="M35.4236 121.423V117.309H47.4303C48.0525 117.309 48.1908 117.015 48.1908 116.256C48.1908 115.595 47.9831 115.35 47.4303 115.35H39.825C36.9216 115.35 35.4236 114.077 35.4236 111.97V109.057C35.4236 106.289 36.3914 105.236 40.4471 105.236H52.1314V109.302H41.5995C41.0005 109.302 40.8625 109.62 40.8625 110.281C40.8625 110.942 41.093 111.26 41.692 111.26H49.1814C52.2928 111.26 53.6062 112.656 53.6062 115.105V117.554C53.6062 120.199 52.4076 121.423 48.8358 121.423H35.4236Z" fill="#575756"/>
<path d="M68.1506 121.423V116.525C68.1506 115.791 67.5978 115.399 66.4455 115.399H61.26V121.423H55.4531V105.236H61.26V113.097L67.9206 105.236H74.2579L68.7959 111.603H69.5797C72.8059 111.603 73.9583 112.755 73.9583 115.154V121.423H68.1506Z" fill="#575756"/>
<path d="M75.9648 105.236H81.7725V121.423H75.9648V105.236Z" fill="#575756"/>
<path d="M96.2701 121.423L89.5183 113.661V121.423H83.9868V105.236H89.9791L96.4315 113.44V105.236H101.986V121.423H96.2701Z" fill="#575756"/>
<path d="M103.877 121.423V117.309H115.884C116.506 117.309 116.645 117.015 116.645 116.256C116.645 115.595 116.438 115.35 115.884 115.35H108.279C105.376 115.35 103.877 114.077 103.877 111.971V109.057C103.877 106.289 104.846 105.236 108.902 105.236H120.586V109.302H110.054C109.455 109.302 109.316 109.62 109.316 110.281C109.316 110.942 109.547 111.261 110.146 111.261H117.636C120.747 111.261 122.06 112.656 122.06 115.105V117.554C122.06 120.199 120.863 121.423 117.291 121.423H103.877Z" fill="#575756"/>
<path d="M123.906 121.423V105.236H141.974V109.35H129.76V111.383H135.728V115.252H129.76V117.309H141.974V121.423H123.906Z" fill="#575756"/>
<path d="M148.662 121.423V109.35H143.13V105.236H160V109.35H154.492V121.423H148.662Z" fill="#575756"/>
<defs>
<linearGradient id="paint0_linear_6_350" x1="98.2605" y1="48.5798" x2="154.377" y2="48.5798" gradientUnits="userSpaceOnUse">
<stop stop-color="#C7C7C6"/>
<stop offset="0.999999" stop-color="#1D1D1B"/>
<stop offset="1" stop-color="#1D1D1B"/>
</linearGradient>
<linearGradient id="paint1_linear_6_350" x1="25.6052" y1="67.0468" x2="137.738" y2="67.0468" gradientUnits="userSpaceOnUse">
<stop stop-color="#C7C7C6"/>
<stop offset="0.999999" stop-color="#1D1D1B"/>
<stop offset="1" stop-color="#1D1D1B"/>
</linearGradient>
<linearGradient id="paint2_linear_6_350" x1="24.6248" y1="12.9841" x2="89.9688" y2="12.9841" gradientUnits="userSpaceOnUse">
<stop stop-color="#C7C7C6"/>
<stop offset="0.999999" stop-color="#1D1D1B"/>
<stop offset="1" stop-color="#1D1D1B"/>
</linearGradient>
<linearGradient id="paint3_linear_6_350" x1="68.7371" y1="29.9286" x2="132.607" y2="29.9286" gradientUnits="userSpaceOnUse">
<stop stop-color="#C7C7C6"/>
<stop offset="0.999999" stop-color="#1D1D1B"/>
<stop offset="1" stop-color="#1D1D1B"/>
</linearGradient>
<linearGradient id="paint4_linear_6_350" x1="14.3517" y1="49.3257" x2="77.1291" y2="49.3257" gradientUnits="userSpaceOnUse">
<stop stop-color="#C7C7C6"/>
<stop offset="0.999999" stop-color="#1D1D1B"/>
<stop offset="1" stop-color="#1D1D1B"/>
</linearGradient>
</defs>
</svg>
